<svg xmlns="http://www.w3.org/2000/svg" viewBox="0 0 498.36 259.53"><defs><style type="text/css">@import url(https://fonts.googleapis.com/css?family=Open+Sans);</style>
<clipPath id="a" transform="translate(-9.84 -9.36)"><path fill="none" d="M0 0h514v271H0z"/></clipPath></defs><g clip-path="url(#a)"><path fill="#fff" d="M270.8 44.2l140.6 79.5L270.8 203l-140.6-79.3 140.6-79.5"/><path fill="none" stroke="#318eb0" stroke-linecap="round" stroke-linejoin="round" stroke-width="2" stroke-dasharray="8,8" d="M270.8 44.2l140.6 79.5L270.8 203l-140.6-79.3 140.6-79.5z"/><path d="M242.8 110.5a6.6 6.6 0 0 1 0 9 5.7 5.7 0 0 1-8.4 0 6.6 6.6 0 0 1 0-9 5.7 5.7 0 0 1 8.4 0" fill="#fff"/><path d="M242.8 110.5a6.6 6.6 0 0 1 0 9 5.7 5.7 0 0 1-8.4 0 6.6 6.6 0 0 1 0-9 5.7 5.7 0 0 1 8.4 0" fill="none" stroke="#010101" stroke-linecap="round" stroke-linejoin="round"/><path d="M221.4 95a6.6 6.6 0 0 1 0 8.8 5.7 5.7 0 0 1-8.4 0 6.6 6.6 0 0 1 0-9 5.7 5.7 0 0 1 8.4 0" fill="#fff"/><path d="M221.4 95a6.6 6.6 0 0 1 0 8.8 5.7 5.7 0 0 1-8.4 0 6.6 6.6 0 0 1 0-9 5.7 5.7 0 0 1 8.4 0" fill="none" stroke="#010101" stroke-linecap="round" stroke-linejoin="round"/><path d="M373.3 119.2a6.6 6.6 0 0 1 0 9 5.7 5.7 0 0 1-8.4 0 6.6 6.6 0 0 1 0-9 5.7 5.7 0 0 1 8.3 0" fill="#fff"/><path d="M373.3 119.2a6.6 6.6 0 0 1 0 9 5.7 5.7 0 0 1-8.4 0 6.6 6.6 0 0 1 0-9 5.7 5.7 0 0 1 8.3 0" fill="none" stroke="#010101" stroke-linecap="round" stroke-linejoin="round"/><path d="M261.8 78.5a6.6 6.6 0 0 1 0 9 5.7 5.7 0 0 1-8.5 0 6.6 6.6 0 0 1 0-9 5.7 5.7 0 0 1 8.5 0" fill="#fff"/><path d="M261.8 78.5a6.6 6.6 0 0 1 0 9 5.7 5.7 0 0 1-8.5 0 6.6 6.6 0 0 1 0-9 5.7 5.7 0 0 1 8.5 0" fill="none" stroke="#010101" stroke-linecap="round" stroke-linejoin="round"/><text transform="translate(157.81 255.14)" font-size="15" font-family="Open Sans" font-weight="700">A Huddle or Stand-Up Meeting</text><path d="M275 112.2a6.6 6.6 0 0 1 0 9 5.7 5.7 0 0 1-8.4 0 6.6 6.6 0 0 1 0-9 5.7 5.7 0 0 1 8.4 0" fill="#fff"/><path d="M275 112.2a6.6 6.6 0 0 1 0 9 5.7 5.7 0 0 1-8.4 0 6.6 6.6 0 0 1 0-9 5.7 5.7 0 0 1 8.4 0" fill="none" stroke="#010101" stroke-linecap="round" stroke-linejoin="round"/><text transform="matrix(.87 -.48 .48 .87 119.04 75.93)" font-size="14" font-family="Open Sans">Sha<tspan x="24.1" y="0">r</tspan><tspan x="29.5" y="0">e team updates:</tspan></text><text transform="matrix(.87 -.48 .48 .87 117.56 98.48)" font-size="14" font-family="Open Sans">Get all the info out the<tspan x="146.2" y="0">r</tspan><tspan x="151.6" y="0">e</tspan></text><text transform="matrix(.87 .48 -.48 .87 316.12 18.52)" font-size="14" font-family="Open Sans">Identify items</text><text transform="matrix(.87 .48 -.48 .87 309.23 36.42)" font-size="14" font-family="Open Sans">for foll<tspan x="42.8" y="0">o</tspan><tspan x="51" y="0">w-up</tspan></text><path d="M121.3 114.3a13.5 13.5 0 0 1 0 18.8 13 13 0 0 1-18.4 0 13.5 13.5 0 0 1 0-18.7 13 13 0 0 1 18.3 0" fill="#fff"/><path d="M121.3 114.3a13.5 13.5 0 0 1 0 18.8 13 13 0 0 1-18.4 0 13.5 13.5 0 0 1 0-18.7 13 13 0 0 1 18.3 0" fill="none" stroke="#318eb0" stroke-linecap="round" stroke-linejoin="round" stroke-width="2" stroke-dasharray="8,8"/><path d="M437.7 114.3a13.5 13.5 0 0 1 0 18.8 13 13 0 0 1-18.5 0 13.5 13.5 0 0 1 0-18.7 13 13 0 0 1 18.5 0" fill="#fff"/><path d="M437.7 114.3a13.5 13.5 0 0 1 0 18.8 13 13 0 0 1-18.5 0 13.5 13.5 0 0 1 0-18.7 13 13 0 0 1 18.5 0" fill="none" stroke="#318eb0" stroke-linecap="round" stroke-linejoin="round" stroke-width="2" stroke-dasharray="8,8"/><path d="M295.8 82.5a6.6 6.6 0 0 1 0 9 5.7 5.7 0 0 1-8.4 0 6.6 6.6 0 0 1 0-9 5.7 5.7 0 0 1 8.4 0" fill="#fff"/><path d="M295.8 82.5a6.6 6.6 0 0 1 0 9 5.7 5.7 0 0 1-8.4 0 6.6 6.6 0 0 1 0-9 5.7 5.7 0 0 1 8.4 0" fill="none" stroke="#010101" stroke-linecap="round" stroke-linejoin="round"/><path d="M190.8 119.2a6.6 6.6 0 0 1 0 9 5.7 5.7 0 0 1-8.4 0 6.6 6.6 0 0 1 0-9 5.7 5.7 0 0 1 8.4 0" fill="#fff"/><path d="M190.8 119.2a6.6 6.6 0 0 1 0 9 5.7 5.7 0 0 1-8.4 0 6.6 6.6 0 0 1 0-9 5.7 5.7 0 0 1 8.4 0" fill="none" stroke="#010101" stroke-linecap="round" stroke-linejoin="round"/><text transform="translate(0 129.19)" font-size="14" font-family="Open Sans">Quick Hellos</text><text transform="translate(453.96 129.69)" font-size="16" font-family="Open Sans">Done!</text><path fill="none" stroke="#318eb0" stroke-linecap="round" stroke-linejoin="round" stroke-width="2" d="M130.2 105.6l126.6-68.8"/><path fill="#318eb0" d="M265.3 32.2L255 33.6l3.6 6.4 6.7-7.8"/><path fill="none" stroke="#318eb0" stroke-miterlimit="10" stroke-width="2" d="M265.3 32.2L255 33.6l3.6 6.4 6.7-7.8z"/><path fill="none" stroke="#318eb0" stroke-linecap="round" stroke-linejoin="round" stroke-width="2" d="M131 145.6l125.7 66"/><path fill="#318eb0" d="M265.2 216l-6.8-7.5-3.3 6.3 10.2 1.3"/><path fill="none" stroke="#318eb0" stroke-miterlimit="10" stroke-width="2" d="M265.2 216l-6.8-7.5-3.3 6.3 10.2 1.3z"/><path fill="none" stroke="#318eb0" stroke-linecap="round" stroke-linejoin="round" stroke-width="2" d="M276.7 29.6L400 99.3"/><path fill="#318eb0" d="M408.5 104l-6.6-7.8-3.6 6.2 10 1.6"/><path fill="none" stroke="#318eb0" stroke-miterlimit="10" stroke-width="2" d="M408.5 104l-6.6-7.8-3.6 6.2 10 1.6z"/><path fill="none" stroke="#318eb0" stroke-linecap="round" stroke-linejoin="round" stroke-width="2" d="M280 214.6L400 147"/><path fill="#318eb0" d="M408.5 142.3l-10 1.5 3.4 6.3 6.5-7.7"/><path fill="none" stroke="#318eb0" stroke-miterlimit="10" stroke-width="2" d="M408.5 142.3l-10 1.5 3.4 6.3 6.5-7.7z"/><path d="M232.3 152.5a6.6 6.6 0 0 1 0 9 5.7 5.7 0 0 1-8.4 0 6.6 6.6 0 0 1 0-9 5.7 5.7 0 0 1 8.3 0" fill="#fff"/><path d="M232.3 152.5a6.6 6.6 0 0 1 0 9 5.7 5.7 0 0 1-8.4 0 6.6 6.6 0 0 1 0-9 5.7 5.7 0 0 1 8.3 0" fill="none" stroke="#010101" stroke-linecap="round" stroke-linejoin="round"/><path d="M261.8 144.5a6.6 6.6 0 0 1 0 9 5.7 5.7 0 0 1-8.5 0 6.6 6.6 0 0 1 0-9 5.7 5.7 0 0 1 8.5 0" fill="#fff"/><path d="M261.8 144.5a6.6 6.6 0 0 1 0 9 5.7 5.7 0 0 1-8.5 0 6.6 6.6 0 0 1 0-9 5.7 5.7 0 0 1 8.5 0" fill="none" stroke="#010101" stroke-linecap="round" stroke-linejoin="round"/><path d="M292.8 162.5a6.6 6.6 0 0 1 0 9 5.7 5.7 0 0 1-8.4 0 6.6 6.6 0 0 1 0-9 5.7 5.7 0 0 1 8.4 0" fill="#fff"/><path d="M292.8 162.5a6.6 6.6 0 0 1 0 9 5.7 5.7 0 0 1-8.4 0 6.6 6.6 0 0 1 0-9 5.7 5.7 0 0 1 8.4 0" fill="none" stroke="#010101" stroke-linecap="round" stroke-linejoin="round"/><path d="M331.8 110.5a6.6 6.6 0 0 1 0 9 5.7 5.7 0 0 1-8.4 0 6.6 6.6 0 0 1 0-9 5.7 5.7 0 0 1 8.4 0" fill="#fff"/><path d="M331.8 110.5a6.6 6.6 0 0 1 0 9 5.7 5.7 0 0 1-8.4 0 6.6 6.6 0 0 1 0-9 5.7 5.7 0 0 1 8.4 0" fill="none" stroke="#010101" stroke-linecap="round" stroke-linejoin="round"/><path d="M303.3 130a6.6 6.6 0 0 1 0 8.8 5.7 5.7 0 0 1-8.4 0 6.6 6.6 0 0 1 0-9 5.7 5.7 0 0 1 8.3 0" fill="#fff"/><path d="M303.3 130a6.6 6.6 0 0 1 0 8.8 5.7 5.7 0 0 1-8.4 0 6.6 6.6 0 0 1 0-9 5.7 5.7 0 0 1 8.3 0" fill="none" stroke="#010101" stroke-linecap="round" stroke-linejoin="round"/></g></svg>